#!OML:ASF I:\Actors\actors\Patient Classification 2\Patient 1\Session 1\actor1.ASF
:FULLY-SPECIFIED
:DEGREES
388
root -1.26943 18.6803 6.10687 4.49061 9.92359 -4.86648
lowerback 0.963085 2.0278 -9.98655
upperback -5.38182 1.95118 -6.96403
thorax -6.33519 1.27547 -1.89564
lowerneck -16.4495 0.974601 1.47557
upperneck 30.0132 -1.84344 9.24715
head 12.8794 0.640338 3.05339
rclavicle 2.18663e-014 -9.85972e-014
rhumerus 53.8474 55.0416 -17.5152
rradius 130.639
rwrist -42.2723
rhand -0.463701 -24.8929
rfingers 7.12502
rthumb 25.1462 -53.2567
lclavicle 2.18663e-014 -9.85972e-014
lhumerus 22.4276 68.0067 65.7639
lradius 50.1999
lwrist 47.1394
lhand -34.7855 -26.3289
lfingers 7.12502
lthumb -7.93772 3.50205
rfemur 0 0 0
rtibia 0
rfoot 0 0
rtoes 0
lfemur -9.60566 -18.7661 -5.8524
ltibia 22.4678
lfoot -25.6566 20.3039
ltoes -55.3384
389
root -1.25287 18.6841 6.10498 4.4769 9.36223 -4.78253
lowerback 0.859791 1.89976 -9.78118
upperback -5.49878 1.80236 -6.7105
thorax -6.39145 1.20242 -1.72815
lowerneck -16.3998 0.829406 0.974194
upperneck 30.2228 -1.97481 9.40606
head 12.9637 0.547103 3.19144
rclavicle -7.15625e-015 -5.40694e-014
rhumerus 52.9987 55.4611 -17.6493
rradius 131.192
rwrist -41.9264
rhand -0.394899 -24.5994
rfingers 7.12502
rthumb 25.2121 -52.954
lclavicle -7.15625e-015 -5.40694e-014
lhumerus 24.4784 68.3102 67.7033
lradius 50.8771
lwrist 47.1653
lhand -34.5019 -26.5564
lfingers 7.12502
lthumb -7.66407 3.28469
rfemur 0 0 0
rtibia 0
rfoot 0 0
rtoes 0
lfemur -9.33751 -18.6894 -6.12672
ltibia 22.3854
lfoot -25.7483 20.7422
ltoes -54.5467
390
root -1.23804 18.6827 6.10313 4.43104 8.84683 -4.70391
lowerback 0.765461 1.84655 -9.57728
upperback -5.58499 1.75008 -6.5691
thorax -6.42113 1.17245 -1.68514
lowerneck -16.3072 0.625926 0.787462
upperneck 30.3727 -2.28609 9.57165
head 13.0292 0.409671 3.24663
rclavicle 5.14852e-014 -5.08889e-014
rhumerus 51.6451 55.7558 -18.3548
rradius 131.629
rwrist -41.734
rhand -0.258598 -24.3332
rfingers 7.12502
rthumb 25.3427 -52.6693
lclavicle 5.14852e-014 -5.08889e-014
lhumerus 25.0901 67.6741 67.5615
lradius 50.7356
lwrist 47.6229
lhand -34.1814 -26.3144
lfingers 7.12502
lthumb -7.3547 3.5378
rfemur 0 0 0
rtibia 0
rfoot 0 0
rtoes 0
lfemur -9.00744 -18.5629 -6.38348
ltibia 22.3362
lfoot -26.1801 20.6759
ltoes -54.7264
391
root -1.22216 18.6812 6.10048 4.37641 8.34745 -4.59422
lowerback 0.678053 1.96749 -9.31117
upperback -5.6564 1.9208 -6.68786
thorax -6.43849 1.24096 -1.96751
lowerneck -16.1263 0.287885 1.19308
upperneck 30.3733 -2.91298 9.58318
head 13.032 0.176498 3.07979
rclavicle -1.59028e-014 4.13472e-014
rhumerus 49.0988 55.9614 -20.1996
rradius 131.984
rwrist -41.6096
rhand -0.491241 -24.4531
rfingers 7.12502
rthumb 25.1198 -52.8206
lclavicle -1.59028e-014 4.13472e-014
lhumerus 28.0654 67.0039 70.0748
lradius 51.0288
lwrist 47.0937
lhand -33.7462 -25.7169
lfingers 7.12502
lthumb -6.93461 4.1495
rfemur 0 0 0
rtibia 0
rfoot 0 0
rtoes 0
lfemur -8.68309 -18.282 -6.67506
ltibia 22.2816
lfoot -26.4992 20.5888
ltoes -54.6017
392
root -1.20612 18.6827 6.09789 4.29852 7.9029 -4.5178
lowerback 0.650178 1.79159 -9.12636
upperback -5.68972 1.71031 -6.32664
thorax -6.44979 1.13875 -1.67034
lowerneck -16.222 0.149909 0.523844
upperneck 30.6811 -2.96851 9.63811
head 13.1872 0.0882116 3.22513
rclavicle -5.36719e-015 1.01778e-013
rhumerus 48.5295 56.249 -20.2217
rradius 132.39
rwrist -41.7278
rhand -0.68056 -24.5544
rfingers 7.12502
rthumb 24.9384 -52.9472
lclavicle -5.36719e-015 1.01778e-013
lhumerus 29.3574 67.2924 71.2976
lradius 51.4714
lwrist 47.1816
lhand -33.5921 -25.595
lfingers 7.12502
lthumb -6.78577 4.2763
rfemur 0 0 0
rtibia 0
rfoot 0 0
rtoes 0
lfemur -8.37508 -17.9591 -6.92119
ltibia 22.2151
lfoot -26.6283 20.6286
ltoes -54.4969
393
root -1.19138 18.6843 6.09548 4.22381 7.54282 -4.43641
lowerback 0.642348 1.63113 -8.94547
upperback -5.75081 1.51235 -6.02557
thorax -6.501 1.04276 -1.43889
lowerneck -16.1917 -0.011899 0.041647
upperneck 30.991 -3.10658 9.68261
head 13.3236 -0.019426 3.3199
rclavicle -1.8487e-014 2.22639e-014
rhumerus 47.5661 56.5563 -20.6666
rradius 132.692
rwrist -41.5773
rhand -0.79242 -24.359
rfingers 7.12502
rthumb 24.8312 -52.7666
lclavicle -1.8487e-014 2.22639e-014
lhumerus 30.1971 67.3533 72.0345
lradius 51.8637
lwrist 47.2082
lhand -33.4342 -25.1929
lfingers 7.12502
lthumb -6.63342 4.68318
rfemur 0 0 0
rtibia 0
rfoot 0 0
rtoes 0
lfemur -8.07935 -17.7946 -7.15477
ltibia 22.1713
lfoot -26.9286 20.5811
ltoes -54.1528
394
root -1.17489 18.6855 6.09426 4.18787 7.20777 -4.31564
lowerback 0.585092 1.50086 -8.75155
upperback -5.841 1.35599 -5.79968
thorax -6.55425 0.965081 -1.29695
lowerneck -15.9838 -0.158411 -0.20636
upperneck 31.2186 -3.2478 9.62592
head 13.3842 -0.120592 3.32623
rclavicle 3.26007e-014 -3.81667e-014
rhumerus 46.2149 56.9774 -21.5194
rradius 132.95
rwrist -41.2387
rhand -1.1169 -24.3537
rfingers 7.12502
rthumb 24.5202 -52.8038
lclavicle 3.26007e-014 -3.81667e-014
lhumerus 30.2883 67.1027 71.7829
lradius 51.9074
lwrist 47.2286
lhand -33.2655 -24.6743
lfingers 7.12502
lthumb -6.47048 5.20688
rfemur 0 0 0
rtibia 0
rfoot 0 0
rtoes 0
lfemur -7.86399 -17.5936 -7.42407
ltibia 22.1542
lfoot -27.1725 20.5574
ltoes -53.9335
395
root -1.15736 18.6856 6.09363 4.15428 6.87471 -4.22749
lowerback 0.524588 1.40082 -8.46892
upperback -5.92037 1.24512 -5.57619
thorax -6.59219 0.904458 -1.20888
lowerneck -15.7877 -0.318508 -0.527277
upperneck 31.4404 -3.38234 9.55517
head 13.4452 -0.229735 3.3409
rclavicle 1.98785e-014 -4.45278e-014
rhumerus 44.7418 57.4818 -22.4631
rradius 133.302
rwrist -41.0786
rhand -0.8237 -24.4494
rfingers 7.12502
rthumb 24.8012 -52.8612
lclavicle 1.98785e-014 -4.45278e-014
lhumerus 32.0098 67.2991 73.8517
lradius 52.6751
lwrist 46.2543
lhand -32.8766 -23.4724
lfingers 7.12502
lthumb -6.09503 6.4199
rfemur 0 0 0
rtibia 0
rfoot 0 0
rtoes 0
lfemur -7.72043 -17.2062 -7.64815
ltibia 22.1347
lfoot -27.0885 20.6292
ltoes -54.0871
396
root -1.14103 18.6861 6.09202 4.12054 6.57958 -4.20006
lowerback 0.465495 1.28345 -8.14953
upperback -5.98062 1.11744 -5.2904
thorax -6.60922 0.834588 -1.0738
lowerneck -15.5501 -0.47861 -0.787567
upperneck 31.6027 -3.46353 9.28182
head 13.4614 -0.338251 3.26799
rclavicle 5.1684e-015 -4.45278e-014
rhumerus 43.4902 57.983 -23.1528
rradius 133.781
rwrist -41.2042
rhand -0.137403 -24.5821
rfingers 7.12502
rthumb 25.4588 -52.9017
lclavicle 5.1684e-015 -4.45278e-014
lhumerus 30.8131 66.7008 72.1959
lradius 52.5468
lwrist 47.123
lhand -32.741 -23.0779
lfingers 7.12502
lthumb -5.96417 6.81813
rfemur 0 0 0
rtibia 0
rfoot 0 0
rtoes 0
lfemur -7.59728 -16.9338 -7.79229
ltibia 22.108
lfoot -26.9979 20.74
ltoes -54.2229
397
root -1.12486 18.6872 6.08939 4.07874 6.29292 -4.11839
lowerback 0.428403 1.15596 -7.91902
upperback -6.03518 0.970036 -5.01133
thorax -6.63528 0.759494 -0.897036
lowerneck -15.2322 -0.589949 -0.658686
upperneck 31.7172 -3.48516 8.70588
head 13.4233 -0.416319 3.01078
rclavicle 3.18055e-015 3.18055e-014
rhumerus 42.2998 58.4045 -23.8133
rradius 134.233
rwrist -41.321
rhand 0.168101 -24.6651
rfingers 7.12502
rthumb 25.7514 -52.9426
lclavicle 3.18055e-015 3.18055e-014
lhumerus 30.4611 66.4776 72.1525
lradius 53.4776
lwrist 47.7957
lhand -32.2614 -22.753
lfingers 7.12502
lthumb -5.50113 7.15561
rfemur 0 0 0
rtibia 0
rfoot 0 0
rtoes 0
lfemur -7.43229 -16.8835 -8.01181
ltibia 22.0833
lfoot -27.1391 20.9047
ltoes -54.2044
398
root -1.10919 18.6858 6.08715 3.98562 5.98032 -4.01344
lowerback 0.431093 1.06795 -7.74036
upperback -6.0678 0.868662 -4.76627
thorax -6.66403 0.708386 -0.731473
lowerneck -14.9504 -0.665524 -0.354064
upperneck 31.8373 -3.51092 8.14428
head 13.3949 -0.47094 2.7295
rclavicle 9.14409e-015 -3.49861e-014
rhumerus 40.7408 58.7857 -24.8871
rradius 134.497
rwrist -41.2046
rhand 0.697502 -24.2733
rfingers 7.12502
rthumb 26.2583 -52.4763
lclavicle 9.14409e-015 -3.49861e-014
lhumerus 29.3179 65.9384 71.1337
lradius 54.3186
lwrist 49.0568
lhand -31.888 -22.548
lfingers 7.12502
lthumb -5.14058 7.36966
rfemur 0 0 0
rtibia 0
rfoot 0 0
rtoes 0
lfemur -7.22803 -16.743 -8.27193
ltibia 22.0579
lfoot -27.1437 21.1732
ltoes -54.4078
399
root -1.09384 18.6845 6.08495 3.89074 5.66829 -3.98385
lowerback 0.40549 0.894373 -7.5156
upperback -6.12201 0.667535 -4.3158
thorax -6.69473 0.612503 -0.36895
lowerneck -14.7216 -0.685052 -0.820589
upperneck 32.1208 -3.36565 7.97417
head 13.4558 -0.488361 2.7754
rclavicle 5.56597e-015 -7.63333e-014
rhumerus 39.8223 59.392 -25.3073
rradius 134.726
rwrist -41.0038
rhand 1.36853 -23.8073
rfingers 7.12502
rthumb 26.9005 -51.9131
lclavicle 5.56597e-015 -7.63333e-014
lhumerus 27.0864 65.6896 69.2885
lradius 55.3952
lwrist 50.2723
lhand -31.6371 -22.1826
lfingers 7.12502
lthumb -4.89831 7.74077
rfemur 0 0 0
rtibia 0
rfoot 0 0
rtoes 0
lfemur -7.03257 -16.4727 -8.43026
ltibia 22.0192
lfoot -27.0296 21.3211
ltoes -54.5598
400
root -1.07727 18.6849 6.08057 3.82204 5.36625 -3.915
lowerback 0.366112 0.804219 -7.21369
upperback -6.12566 0.577766 -4.03086
thorax -6.66457 0.559847 -0.22904
lowerneck -14.7732 -0.831311 -1.45327
upperneck 32.5386 -3.51354 8.21309
head 13.6718 -0.592955 2.97783
rclavicle -1.19271e-014 4.45278e-014
rhumerus 38.4812 59.8543 -26.1183
rradius 135.027
rwrist -40.8279
rhand 1.5175 -23.7001
rfingers 7.12502
rthumb 27.0431 -51.7838
lclavicle -1.19271e-014 4.45278e-014
lhumerus 25.2989 65.1198 67.9072
lradius 56.686
lwrist 51.1674
lhand -31.3094 -22.1565
lfingers 7.12502
lthumb -4.5819 7.77395
rfemur 0 0 0
rtibia 0
rfoot 0 0
rtoes 0
lfemur -6.83746 -16.2114 -8.62269
ltibia 21.9611
lfoot -27.0051 21.3411
ltoes -54.5222
